<?xml version="1.0" encoding="utf-8"?>
<!-- Generator: Adobe Illustrator 22.1.0, SVG Export Plug-In . SVG Version: 6.00 Build 0)  -->
<svg version="1.1" id="ccv-logo" xmlns="http://www.w3.org/2000/svg" xmlns:xlink="http://www.w3.org/1999/xlink" x="0px" y="0px"
	 viewBox="0 0 987.9 203.5" style="enable-background:new 0 0 987.9 203.5;" xml:space="preserve">
<title>CCV</title>
<g>
	<g>
		<path d="M582.5,19.1c5.9,1,10.6,3.6,10.6,9.8c0,4.1-2.2,7.3-5.9,9.2c-3.2,1.8-7.3,2.5-12.1,2.5h-13.8v-2c5.4-0.4,5.7-0.7,5.7-5.7
			V8.6c0-5-0.2-5.4-5.2-5.7v-2h16c4.6,0,7.3,0.7,9.2,2.1c2.2,1.6,3.5,4.2,3.4,7c0,5.7-4.8,8.1-8,9L582.5,19.1z M575.2,18.3
			c6.5,0,9.5-2.6,9.5-7.6c0-4.2-2.4-7.6-8.1-7.6c-1.2-0.1-2.4,0.2-3.5,0.7c-0.5,0.4-0.8,1-0.8,2.9v11.7H575.2z M572.2,32.8
			c0,4.3,1.1,5.4,5.1,5.4c5-0.1,9.5-2.5,9.5-8.8s-4.5-8.8-11.8-8.8h-2.9V32.8z"/>
	</g>
	<g>
		<path d="M634.1,41c-0.9,0-1.6,0-2.4-0.1c-4.4-0.2-7-1.5-9.8-5.6c-2.1-2.9-4.3-6.8-6.1-9.7c-1-1.7-2.1-2.4-5.3-2.4h-2v9.4
			c0,5.1,0.5,5.4,5.5,5.8v2h-16.4v-2c5.1-0.4,5.6-0.7,5.6-5.8V8.7c0-5.2-0.5-5.4-5.3-5.8v-2h15.4c4.5,0,7.4,0.5,9.8,2
			c2.7,1.8,4.3,4.8,4.1,8.1c0,5.2-3.2,8.5-7.7,10.5c1,2,3.6,6,5.4,8.7c1.4,2.2,3,4.3,4.8,6.2c1.2,1.3,2.8,2.3,4.5,2.8L634.1,41z
			 M611.5,21.2c3.1,0,5.1-0.5,6.7-1.8c2.3-1.8,3.3-4.2,3.3-7.4c0-6.5-4.5-8.8-9-8.8c-1.1-0.1-2.3,0.1-3.3,0.7
			c-0.5,0.4-0.7,1.1-0.7,2.6v14.8H611.5z"/>
	</g>
	<g>
		<path d="M676.8,20.3c0,13.2-9.3,21.2-20.6,21.2c-11,0-20-8.5-20-20.4c0-11,7.8-21.1,20.8-21.1c10.9-0.1,19.8,8.7,19.9,19.6
			C676.8,19.9,676.8,20.1,676.8,20.3z M642.5,19.5c0,11.3,6.4,19.6,15,19.6c6.7,0,12.8-5.5,12.8-17.2c0-12.8-6.8-19.4-14.7-19.4
			C648.8,2.4,642.5,8,642.5,19.5L642.5,19.5z"/>
	</g>
	<path d="M737.5,2.9c-4.2,0.5-4.8,1.1-6.5,5.9c-1.4,3.7-5.1,15.3-10.1,32.3h-2.2c-3.3-9.7-7.3-20.7-10.6-30.1h-0.1
		c-3.4,10.7-6.8,20.3-9.9,30.1h-2.2c-3.2-11-6.7-21.5-10-32.4c-1.5-4.9-2.5-5.4-6.2-5.9v-2h15.1v2c-4.5,0.5-4.6,1-3.8,4
		c2.4,8.2,4.8,16.2,7.5,24.9h0.1c3.3-10.4,6.7-20.4,9.8-30.3h2.1c3.4,9.9,6.9,19.7,10.6,30.3h0.1c2.6-8.1,6-20,6.9-24.2
		c0.8-3.5,0.5-4.2-4.1-4.8v-2h13.6L737.5,2.9z"/>
	<path d="M783.3,2.9c-3.5,0.2-5,1-5.3,3.5c-0.3,3.5-0.4,6.9-0.4,10.4v24.3h-2.1L749.6,9.4h-0.1v14.8c0,5.5,0.2,8.4,0.4,10.2
		c0.3,3,1.8,3.8,6,4v2h-15v-2c3.5-0.2,5.1-1,5.4-3.8c0.4-3.5,0.5-6.9,0.5-10.4V11.1c0-4.4-0.1-4.6-1.3-6s-2.6-2-5.5-2.2v-2h9.3
		l25.4,30.3h0.2V16.8c0.1-3.4-0.1-6.8-0.4-10.2c-0.3-2.6-1.8-3.4-6.1-3.7v-2h15L783.3,2.9z"/>
	<g>
		<path d="M583.5,95.5c-2.9,0-5.8-0.5-8.5-1.6c-2.6-1-5-2.6-7-4.5c-2.1-2-3.7-4.4-4.8-7.1c-2.4-6-2.4-12.7,0-18.7
			c2.2-5.3,6.5-9.5,11.9-11.6c2.6-1.1,5.5-1.6,8.3-1.6c2.7,0,5.4,0.4,7.9,1.2c2.1,0.7,4.1,1.9,5.8,3.3c1.6,1.3,2.9,2.9,3.9,4.6
			c1,1.6,1.7,3.4,2.2,5.2l-7.9,2.5c-0.3-1.1-0.7-2.1-1.2-3.1c-0.6-1.1-1.4-2-2.3-2.8c-1-0.9-2.2-1.5-3.5-2c-3.1-1.1-6.6-1.1-9.7,0.1
			c-1.6,0.6-3,1.5-4.3,2.7c-1.3,1.3-2.4,2.8-3,4.5c-0.8,2-1.2,4.2-1.2,6.4c0,2.1,0.3,4.2,1.1,6.1c0.7,1.7,1.7,3.2,3,4.5
			c1.2,1.2,2.7,2.1,4.3,2.8c1.6,0.6,3.3,0.9,5,0.9c1.7,0,3.3-0.2,4.8-0.8c1.3-0.5,2.5-1.2,3.6-2.1c0.9-0.8,1.7-1.8,2.4-2.8
			c0.6-1,1-2,1.3-3.1l7.9,2.4c-0.5,1.8-1.2,3.5-2.1,5.1c-1.1,1.8-2.4,3.4-4,4.7c-1.8,1.5-3.8,2.7-5.9,3.5
			C589,95.1,586.3,95.5,583.5,95.5z"/>
	</g>
	<path d="M635.8,86c-0.8,2.7-2.4,5-4.6,6.7c-1.2,0.9-2.6,1.6-4,2c-1.6,0.5-3.3,0.8-5,0.8c-2,0-4-0.4-5.9-1.1
		c-1.8-0.7-3.5-1.8-4.9-3.1c-1.5-1.4-2.6-3.2-3.4-5.1c-0.9-2.2-1.3-4.5-1.2-6.8c0-2.2,0.4-4.5,1.2-6.5c0.7-1.9,1.9-3.6,3.3-5
		c1.4-1.4,3-2.4,4.7-3.2c1.8-0.7,3.6-1.1,5.5-1.1c4.7,0,8.3,1.4,10.9,4.1c2.6,2.8,3.9,6.6,3.9,11.4c0,0.6,0,1.1-0.1,1.6
		c0,0.5-0.1,0.8-0.1,0.9h-21.5c0,0.9,0.3,1.9,0.7,2.7c0.8,1.7,2.3,2.9,4,3.6c0.9,0.3,1.9,0.5,2.9,0.5c1.6,0.1,3.2-0.4,4.5-1.3
		c1.1-0.9,1.9-2,2.3-3.3L635.8,86z M628.3,76.1c0-0.7-0.2-1.5-0.5-2.2c-0.3-0.7-0.7-1.4-1.2-1.9c-0.6-0.6-1.3-1-2.1-1.3
		c-1-0.4-2-0.5-3-0.5c-1,0-1.9,0.2-2.8,0.6c-0.8,0.3-1.5,0.8-2.1,1.4c-0.6,0.5-1,1.2-1.3,1.9c-0.3,0.7-0.5,1.4-0.5,2.1L628.3,76.1z"
		/>
	<path d="M650.8,94.6h-8.1v-30h7.9v3.7c0.9-1.5,2.2-2.7,3.8-3.4c3.1-1.4,6.6-1.5,9.7-0.2c1.3,0.6,2.5,1.5,3.4,2.5
		c0.9,1.1,1.6,2.4,2,3.8c0.4,1.5,0.6,3.1,0.6,4.6v18.9H662V77.1c0.1-1.5-0.4-3-1.3-4.3c-2.3-2.3-6-2.3-8.3,0c0,0,0,0-0.1,0.1
		c-1,1.3-1.5,2.8-1.5,4.4L650.8,94.6z"/>
	<g>
		<path d="M688.3,64.5h6v7.2h-6v12.6c-0.1,1,0.2,2,0.9,2.7c0.8,0.6,1.7,0.8,2.7,0.8c0.5,0,1,0,1.5-0.1c0.3,0,0.7-0.1,1-0.2v6.8
			c-0.5,0.2-1.1,0.4-1.7,0.5c-1,0.2-1.9,0.3-2.9,0.2c-2.6,0.1-5.1-0.7-7-2.4c-1.8-1.8-2.7-4.3-2.6-6.8v-14h-5.4v-7.2h1.5
			c1.3,0.1,2.6-0.4,3.5-1.4c0.8-1,1.2-2.2,1.1-3.4v-4.2h7.3V64.5z"/>
	</g>
	<path d="M727.8,86c-0.8,2.7-2.4,5-4.6,6.7c-1.2,0.9-2.6,1.6-4,2c-1.6,0.5-3.3,0.8-5,0.8c-2,0-4-0.4-5.9-1.1
		c-1.8-0.7-3.5-1.8-4.9-3.1c-1.5-1.4-2.6-3.2-3.4-5.1c-0.9-2.2-1.3-4.5-1.2-6.8c0-2.2,0.4-4.5,1.2-6.5c0.7-1.9,1.9-3.6,3.3-5
		c1.4-1.4,3-2.4,4.7-3.2c1.8-0.7,3.6-1.1,5.5-1.1c4.7,0,8.3,1.4,10.9,4.1c2.6,2.8,3.9,6.6,3.9,11.4c0,0.6,0,1.1-0.1,1.6
		c0,0.5-0.1,0.8-0.1,0.9h-21.5c0,0.9,0.3,1.9,0.7,2.7c0.8,1.7,2.3,2.9,4,3.6c0.9,0.3,1.9,0.5,2.9,0.5c1.6,0.1,3.2-0.4,4.5-1.3
		c1.1-0.9,1.9-2,2.3-3.3L727.8,86z M720.2,76.1c0-0.7-0.2-1.5-0.5-2.2c-0.3-0.7-0.7-1.4-1.2-1.9c-0.6-0.6-1.3-1-2.1-1.3
		c-1-0.4-2-0.5-3-0.5c-1,0-1.9,0.2-2.8,0.6c-0.8,0.3-1.5,0.8-2.1,1.4c-0.6,0.5-1,1.2-1.3,1.9c-0.3,0.7-0.5,1.4-0.5,2.1L720.2,76.1z"
		/>
	<path d="M752.9,72.6c-0.8-0.2-1.6-0.2-2.4-0.2c-1,0-2,0.1-3,0.4c-0.9,0.3-1.7,0.7-2.4,1.4c-0.7,0.7-1.3,1.6-1.7,2.6
		c-0.5,1.3-0.7,2.7-0.7,4.1v13.7h-8.1v-30h7.9V69c0.4-0.9,1-1.7,1.7-2.4c0.7-0.6,1.4-1.1,2.3-1.4c0.8-0.3,1.6-0.5,2.4-0.7
		c0.7-0.1,1.4-0.2,2.2-0.2c0.3,0,0.6,0,1,0l0.9,0.1L752.9,72.6z"/>
	<g>
		<path d="M787.5,57.1c-0.5,0-1,0.1-1.5,0.2c-0.5,0.1-1,0.3-1.4,0.6c-0.4,0.3-0.8,0.8-1,1.2c-0.3,0.7-0.4,1.4-0.4,2.1v3.3h6.8v7
			h-6.8v23H775v-23h-5v-7h5v-3.4c0-1.6,0.2-3.1,0.8-4.6c0.9-2.7,3-4.8,5.6-5.8c1.4-0.5,3-0.8,4.5-0.8c0.8,0,1.6,0.1,2.4,0.2
			c0.6,0.1,1.1,0.2,1.6,0.4v6.8c-0.3-0.1-0.6-0.2-0.9-0.2C788.5,57.1,788,57.1,787.5,57.1z"/>
	</g>
	<path d="M808.1,63.6c2.1,0,4.3,0.4,6.2,1.2c1.9,0.8,3.6,1.9,5,3.3c1.4,1.4,2.6,3.1,3.3,5c0.8,2,1.2,4.2,1.2,6.4
		c0,2.2-0.4,4.3-1.2,6.4c-0.8,1.9-1.9,3.6-3.3,5c-1.4,1.4-3.1,2.6-5,3.3c-4,1.6-8.5,1.6-12.5,0c-1.9-0.8-3.6-1.9-5-3.3
		c-1.4-1.4-2.5-3.1-3.3-5c-0.8-2-1.2-4.2-1.2-6.4c0-2.2,0.4-4.4,1.2-6.4c0.7-1.9,1.9-3.6,3.3-5c1.4-1.4,3.1-2.5,5-3.3
		C803.8,64,805.9,63.6,808.1,63.6z M808.1,88.1c1,0,2-0.2,2.9-0.6c0.9-0.4,1.8-0.9,2.4-1.6c0.7-0.8,1.3-1.7,1.7-2.6
		c0.9-2.4,0.9-5,0-7.4c-0.4-1-0.9-1.9-1.7-2.7c-0.7-0.7-1.5-1.3-2.4-1.6c-1.8-0.7-3.9-0.7-5.7,0c-0.9,0.4-1.8,0.9-2.4,1.6
		c-0.7,0.8-1.3,1.7-1.7,2.7c-0.9,2.4-0.9,5,0,7.4c0.4,1,0.9,1.9,1.7,2.6c0.7,0.7,1.5,1.3,2.4,1.6C806.1,87.9,807.1,88.1,808.1,88.1
		L808.1,88.1z"/>
	<path d="M848.5,72.6c-0.8-0.2-1.6-0.2-2.4-0.2c-1,0-2,0.1-3,0.4c-0.9,0.3-1.7,0.8-2.4,1.4c-0.7,0.7-1.3,1.6-1.7,2.6
		c-0.5,1.3-0.7,2.7-0.6,4.1v13.7h-8.1v-30h7.9V69c0.4-0.9,1-1.7,1.7-2.4c0.7-0.6,1.4-1.1,2.3-1.4c0.8-0.3,1.6-0.5,2.4-0.7
		c0.7-0.1,1.4-0.2,2.2-0.2c0.3,0,0.6,0,1,0l0.9,0.1L848.5,72.6z"/>
	<g>
		<path d="M583.5,149.5c-2.9,0-5.8-0.5-8.5-1.6c-2.6-1-5-2.6-7-4.5c-2.1-2-3.7-4.4-4.8-7.1c-2.4-6-2.4-12.7,0-18.7
			c2.2-5.3,6.5-9.5,11.9-11.6c2.6-1.1,5.5-1.6,8.3-1.6c2.7,0,5.4,0.4,7.9,1.2c2.1,0.7,4.1,1.9,5.8,3.3c1.6,1.3,2.9,2.9,3.9,4.6
			c1,1.6,1.7,3.4,2.2,5.2l-7.9,2.5c-0.3-1.1-0.7-2.1-1.2-3.1c-0.6-1.1-1.4-2-2.3-2.8c-1-0.9-2.2-1.5-3.5-2c-3.1-1.1-6.6-1.1-9.7,0.1
			c-1.6,0.6-3,1.5-4.3,2.6c-1.3,1.3-2.4,2.8-3,4.5c-0.8,2-1.2,4.2-1.2,6.4c0,2.1,0.3,4.2,1.1,6.1c0.7,1.7,1.7,3.2,3,4.4
			c1.2,1.2,2.7,2.1,4.3,2.8c1.6,0.6,3.3,0.9,5,0.9c1.7,0,3.3-0.2,4.8-0.8c1.3-0.5,2.5-1.2,3.6-2.1c0.9-0.8,1.7-1.8,2.4-2.8
			c0.6-1,1-2,1.3-3.1l7.9,2.4c-0.5,1.8-1.2,3.5-2.1,5.1c-1.1,1.8-2.4,3.4-4,4.7c-1.8,1.5-3.8,2.7-5.9,3.5
			C589,149.1,586.3,149.5,583.5,149.5z"/>
	</g>
	<path d="M622.4,117.6c2.1,0,4.3,0.4,6.2,1.2c1.9,0.8,3.6,1.9,5,3.3c1.4,1.4,2.5,3.1,3.3,5c0.8,2,1.2,4.2,1.2,6.4
		c0,2.2-0.4,4.3-1.2,6.4c-0.8,1.9-1.9,3.6-3.3,5c-1.4,1.4-3.1,2.6-5,3.3c-4,1.6-8.5,1.6-12.5,0c-1.9-0.8-3.6-1.9-5-3.3
		c-1.4-1.4-2.5-3.1-3.3-5c-0.8-2-1.2-4.2-1.2-6.4c0-2.2,0.4-4.4,1.2-6.4c1.5-3.8,4.5-6.8,8.3-8.3C618.1,118,620.3,117.6,622.4,117.6
		z M622.4,142.1c1,0,2-0.2,2.9-0.6c0.9-0.4,1.8-0.9,2.4-1.6c0.7-0.8,1.3-1.7,1.7-2.6c0.9-2.4,0.9-5,0-7.4c-0.4-1-0.9-1.9-1.7-2.7
		c-0.7-0.7-1.5-1.3-2.4-1.6c-1.8-0.7-3.9-0.7-5.7,0c-0.9,0.4-1.8,0.9-2.4,1.6c-0.7,0.8-1.3,1.7-1.7,2.7c-0.9,2.4-0.9,5,0,7.4
		c0.4,1,0.9,1.9,1.7,2.6c0.7,0.7,1.5,1.3,2.4,1.6C620.5,141.9,621.4,142.1,622.4,142.1L622.4,142.1z"/>
	<path d="M644.5,148.6v-30h7.8v3.7c0.4-0.7,1-1.4,1.6-1.9c0.6-0.6,1.4-1,2.2-1.4c0.8-0.4,1.6-0.7,2.5-0.9c0.8-0.2,1.7-0.3,2.5-0.3
		c1.9,0,3.8,0.4,5.4,1.3c1.5,0.8,2.8,2.1,3.5,3.7c1-1.7,2.4-3,4.2-3.9c1.7-0.8,3.5-1.2,5.4-1.1c1.4,0,2.7,0.2,4,0.6
		c1.3,0.4,2.5,1.1,3.5,2c1.1,1,1.9,2.2,2.4,3.6c0.6,1.6,1,3.4,0.9,5.2v19.4h-7.8v-17.8c0-1.4-0.4-2.8-1.2-4c-1-1.2-2.5-1.8-4.1-1.6
		c-1.6-0.1-3.1,0.6-4.1,1.7c-1,1.2-1.5,2.7-1.5,4.2v17.6h-8.1v-17.9c0-1.4-0.4-2.9-1.3-4c-1-1.1-2.5-1.7-4-1.6
		c-1.6-0.1-3.1,0.5-4.2,1.7c-1,1.2-1.5,2.7-1.5,4.2v17.6L644.5,148.6z"/>
	<g>
		<path d="M698.6,160.1v-41.6h7.9v3.7c0.8-1.3,2-2.3,3.4-3c1.8-0.9,3.8-1.3,5.8-1.3c2,0,4,0.4,5.9,1.2c1.7,0.8,3.2,1.9,4.4,3.3
			c1.2,1.5,2.1,3.1,2.7,4.9c0.6,2,0.9,4.1,0.9,6.2c0,2.1-0.3,4.3-1,6.3c-0.6,1.8-1.6,3.5-2.9,5c-1.2,1.4-2.8,2.5-4.5,3.3
			c-1.8,0.8-3.8,1.2-5.8,1.2c-1.8,0-3.7-0.3-5.3-1.1c-1.3-0.6-2.5-1.5-3.3-2.6v14.5L698.6,160.1z M721.5,133.6
			c0.1-2.3-0.6-4.5-2.2-6.2c-1.4-1.4-3.3-2.2-5.3-2.2c-1,0-2,0.2-2.9,0.6c-1.9,0.8-3.3,2.4-4,4.3c-0.8,2.3-0.8,4.8,0,7.1
			c0.4,1,0.9,1.9,1.6,2.6c0.7,0.7,1.5,1.3,2.4,1.7c0.9,0.4,1.9,0.6,2.9,0.6c2,0,3.9-0.8,5.3-2.2
			C720.9,138.1,721.7,135.8,721.5,133.6L721.5,133.6z"/>
	</g>
	<g>
		<path d="M755.5,148.6c-0.1-0.5-0.2-0.9-0.2-1.4c0-0.6-0.1-1.2-0.1-1.8c-0.8,1.4-2.1,2.5-3.6,3.1c-1.5,0.6-3.1,0.9-4.7,0.9
			c-1.7,0-3.3-0.3-4.8-0.9c-1.3-0.6-2.6-1.5-3.6-2.5c-1-1.1-1.7-2.4-2.2-3.8c-0.5-1.5-0.8-3-0.8-4.6v-19h8.1v17.3
			c-0.1,1.5,0.4,3.1,1.3,4.3c1,1.2,2.6,1.9,4.2,1.7c1.6,0.1,3.1-0.5,4.2-1.6c1-1.2,1.5-2.7,1.5-4.3v-17.4h8.1v24.6
			c0,1.2,0,2.2,0.1,3.2s0.1,1.7,0.2,2.2H755.5z"/>
	</g>
	<g>
		<path d="M781.5,118.5h6v7.2h-6v12.6c-0.1,1,0.2,2,0.9,2.7c0.8,0.6,1.7,0.8,2.7,0.8c0.5,0,1,0,1.5-0.1c0.3,0,0.7-0.1,1-0.2v6.8
			c-0.5,0.2-1.1,0.4-1.7,0.5c-1,0.2-1.9,0.3-2.9,0.2c-2.6,0.1-5.1-0.7-7-2.4c-1.8-1.8-2.7-4.3-2.6-6.8v-14H768v-7.2h1.5
			c1.3,0.1,2.6-0.4,3.5-1.4c0.8-1,1.2-2.2,1.1-3.4v-4.2h7.3L781.5,118.5z"/>
	</g>
	<g>
		<path d="M792.8,140.4c-0.1-2.4,0.9-4.7,2.6-6.3c0.8-0.8,1.8-1.4,2.8-1.8c1.1-0.5,2.3-0.8,3.5-1l7.4-1.1c0.7,0,1.3-0.3,1.8-0.8
			c0.3-0.4,0.5-0.9,0.5-1.4c0-1.1-0.5-2.1-1.2-2.8c-1.1-0.9-2.4-1.3-3.8-1.2c-2.9-0.2-5.5,1.9-5.7,4.9c0,0,0,0,0,0l-7.2-1.5
			c0.1-1.2,0.5-2.4,1.1-3.5c0.6-1.2,1.5-2.3,2.5-3.2c1.2-1,2.5-1.8,3.9-2.3c1.7-0.6,3.5-0.9,5.4-0.9c2,0,4.1,0.3,6,0.9
			c1.5,0.5,2.9,1.4,4.1,2.5c1,1,1.8,2.3,2.2,3.6c0.5,1.4,0.7,2.9,0.7,4.3v14.8c0,0.8,0,1.7,0.1,2.6s0.2,1.6,0.2,2.2h-7.4
			c-0.1-0.4-0.2-1-0.2-1.7s-0.1-1.4-0.1-1.9c-0.9,1.3-2,2.3-3.3,3.1c-1.7,1-3.6,1.4-5.5,1.3c-1.5,0-2.9-0.2-4.3-0.8
			c-1.2-0.5-2.3-1.1-3.3-2c-0.9-0.8-1.5-1.8-2-2.9C793.1,142.7,792.8,141.6,792.8,140.4z M804.8,143.4c0.8,0,1.7-0.1,2.5-0.3
			c0.8-0.2,1.5-0.6,2.1-1.2c0.6-0.6,1.1-1.3,1.5-2.1c0.4-1.1,0.6-2.2,0.5-3.3v-1.4l-6.8,1c-1,0.1-1.9,0.6-2.6,1.2
			c-0.7,0.7-1.1,1.6-1,2.6c0,0.9,0.4,1.8,1,2.4C802.8,143.1,803.8,143.4,804.8,143.4L804.8,143.4z"/>
	</g>
	<g>
		<path d="M837.4,118.5h6v7.2h-6v12.6c-0.1,1,0.2,2,0.9,2.7c0.8,0.6,1.7,0.8,2.7,0.8c0.5,0,1,0,1.5-0.1c0.3,0,0.7-0.1,1-0.2v6.8
			c-0.5,0.2-1.1,0.4-1.7,0.5c-1,0.2-1.9,0.3-2.9,0.2c-2.6,0.1-5.1-0.7-7-2.4c-1.8-1.8-2.7-4.3-2.6-6.8v-14h-5.4v-7.2h1.5
			c1.3,0.1,2.6-0.4,3.5-1.4c0.8-1,1.2-2.2,1.1-3.4v-4.2h7.3L837.4,118.5z"/>
	</g>
	<path d="M849.3,108.7c0-1.4,0.5-2.7,1.5-3.6c1.9-2,5.1-2,7.1,0c0,0,0,0,0,0c0.9,1,1.5,2.3,1.4,3.6c0,2.8-2.3,5-5.1,4.9
		c-1.3,0-2.6-0.5-3.5-1.5C849.8,111.3,849.3,110,849.3,108.7z M850.3,148.6v-30h8.1v30H850.3z"/>
	<path d="M880.5,117.6c2.1,0,4.3,0.4,6.3,1.2c3.8,1.5,6.8,4.5,8.3,8.3c0.8,2,1.2,4.2,1.2,6.4c0,2.2-0.4,4.3-1.2,6.4
		c-0.8,1.9-1.9,3.6-3.3,5c-1.4,1.4-3.1,2.6-5,3.3c-4,1.6-8.5,1.6-12.5,0c-1.9-0.8-3.6-1.9-5-3.3c-1.4-1.4-2.5-3.1-3.3-5
		c-0.8-2-1.2-4.2-1.2-6.4c0-2.2,0.4-4.4,1.2-6.4c1.5-3.8,4.5-6.8,8.3-8.3C876.3,118,878.4,117.6,880.5,117.6z M880.5,142.1
		c1,0,2-0.2,2.9-0.6c0.9-0.4,1.8-0.9,2.4-1.6c0.7-0.8,1.3-1.7,1.7-2.6c0.9-2.4,0.9-5,0-7.4c-0.4-1-1-1.9-1.7-2.7
		c-0.7-0.7-1.5-1.3-2.4-1.6c-1.8-0.7-3.9-0.7-5.7,0c-0.9,0.4-1.8,0.9-2.4,1.6c-0.7,0.8-1.3,1.7-1.7,2.7c-0.9,2.4-0.9,5,0,7.4
		c0.4,1,1,1.9,1.7,2.6c0.7,0.7,1.5,1.3,2.4,1.6C878.6,141.9,879.6,142.1,880.5,142.1L880.5,142.1z"/>
	<path d="M910.8,148.6h-8.1v-30h7.9v3.7c0.9-1.5,2.2-2.7,3.8-3.4c3.1-1.4,6.6-1.5,9.7-0.2c1.3,0.6,2.5,1.5,3.4,2.5
		c0.9,1.1,1.6,2.4,2,3.8c0.4,1.5,0.6,3.1,0.6,4.6v18.9H922v-17.5c0.1-1.5-0.4-3-1.3-4.3c-2.3-2.3-6-2.3-8.3,0c0,0,0,0-0.1,0.1
		c-1,1.3-1.5,2.8-1.5,4.4L910.8,148.6z"/>
	<g>
		<path d="M973,143.9c-1.5,1.6-3.3,3-5.3,4c-1.9,1-4.1,1.5-6.3,1.5c-1.9,0-3.8-0.3-5.6-1c-1.5-0.6-2.9-1.5-4.1-2.6
			c-1.1-1-2-2.3-2.5-3.7c-0.6-1.4-0.9-2.8-0.9-4.3c0-1.2,0.2-2.5,0.5-3.6c0.3-1.1,0.8-2.1,1.5-3c0.7-1,1.4-1.9,2.3-2.7
			c0.9-0.8,1.9-1.7,3.1-2.5l0.3-0.2l-0.7-0.7c-0.6-0.6-1.1-1.2-1.6-1.8c-0.6-0.7-1.1-1.5-1.5-2.2c-0.5-0.8-0.9-1.6-1.2-2.5
			c-0.3-0.9-0.5-1.9-0.5-2.8c-0.1-3.2,1.3-6.3,3.8-8.4c1.1-1,2.4-1.7,3.8-2.2c1.4-0.5,2.9-0.7,4.3-0.7c1.6,0,3.3,0.3,4.8,0.8
			c1.4,0.5,2.7,1.2,3.8,2.2c1.1,1,1.9,2.1,2.5,3.4c0.6,1.4,0.9,2.9,0.9,4.4c0,1-0.2,2-0.5,3c-0.3,0.9-0.8,1.8-1.4,2.6
			c-0.6,0.8-1.3,1.6-2,2.3c-0.7,0.7-1.5,1.3-2.3,1.9l-1.6,1.2l6.5,6.9l10.9-11.4v10.1l-6,6.4l9.8,10.2h-10.5L973,143.9z
			 M961.5,142.3c1.2,0,2.4-0.3,3.5-1c1.1-0.8,2.2-1.6,3.1-2.6l-7.4-7.8l-0.9,0.7c-1,0.7-1.8,1.5-2.5,2.5c-0.7,1-1,2.1-1,3.3
			c0,1.3,0.5,2.5,1.4,3.4C958.6,141.8,960.1,142.4,961.5,142.3z M958.2,115.4c0,0.9,0.3,1.9,0.8,2.6c0.5,0.7,1.1,1.4,1.7,2.1
			l1.2,1.3l2.1-1.6c0.9-0.6,1.6-1.3,2.1-2.2c0.4-0.7,0.6-1.5,0.6-2.4c0-1.1-0.4-2.2-1.2-3c-0.9-0.8-2-1.2-3.2-1.2
			c-1,0-2.1,0.4-2.9,1.1C958.6,112.9,958.1,114.1,958.2,115.4L958.2,115.4z"/>
	</g>
	<path d="M591.4,159.3h8.9l-16,43.2h-8.7l-16-43.2h9.2l11.3,32.1L591.4,159.3z"/>
	<path d="M604.3,162.7c0-1.3,0.5-2.7,1.5-3.6c2-1.9,5.1-1.9,7.1,0c0.9,1,1.5,2.3,1.4,3.6c0,2.7-2.2,4.9-4.9,4.9c0,0-0.1,0-0.1,0
		c-1.3,0-2.6-0.5-3.5-1.5C604.8,165.3,604.3,164,604.3,162.7z M605.3,202.6v-30h8.1v30H605.3z"/>
	<g>
		<path d="M626.4,192.7c0.1,1.2,0.6,2.3,1.5,3.2c1.1,1,2.5,1.5,4,1.4c1.1,0.1,2.1-0.2,3-0.9c0.6-0.5,1-1.3,1-2.1
			c0-0.7-0.3-1.3-0.7-1.8c-0.7-0.6-1.6-1-2.5-1.1l-4-0.9c-2.5-0.4-4.7-1.6-6.4-3.4c-1.3-1.6-2-3.5-2-5.6c0-1.3,0.3-2.6,0.8-3.8
			c0.6-1.2,1.4-2.2,2.3-3.1c1-0.9,2.2-1.6,3.5-2.1c1.4-0.5,3-0.8,4.5-0.8c1.8-0.1,3.7,0.2,5.4,0.9c1.3,0.5,2.5,1.3,3.6,2.2
			c0.8,0.8,1.5,1.8,2,2.8c0.4,0.9,0.7,1.8,0.8,2.7l-6.8,1.5c-0.1-0.5-0.2-0.9-0.4-1.4c-0.2-0.5-0.5-0.9-0.9-1.3
			c-0.4-0.4-0.9-0.8-1.5-1c-0.7-0.3-1.4-0.4-2.2-0.4c-1,0-1.9,0.3-2.7,0.9c-0.7,0.5-1.1,1.3-1.1,2.1c0,0.7,0.3,1.3,0.8,1.8
			c0.6,0.5,1.3,0.8,2,0.9l4.3,0.9c2.5,0.4,4.9,1.6,6.7,3.4c1.4,1.6,2.2,3.7,2.2,5.8c0,1.2-0.2,2.5-0.7,3.6c-0.5,1.2-1.2,2.3-2.2,3.2
			c-1.1,1-2.3,1.7-3.7,2.2c-1.6,0.6-3.4,0.9-5.1,0.9c-2,0-3.9-0.3-5.7-1c-1.4-0.6-2.7-1.4-3.8-2.4c-0.9-0.8-1.7-1.9-2.2-3
			c-0.4-0.9-0.7-1.9-0.8-2.9L626.4,192.7z"/>
	</g>
	<path d="M669.6,202.6c-0.1-0.5-0.2-0.9-0.2-1.4c0-0.6-0.1-1.2-0.1-1.8c-0.8,1.4-2.1,2.5-3.6,3.1c-1.5,0.6-3.1,0.9-4.7,0.9
		c-1.7,0-3.3-0.3-4.8-0.9c-1.3-0.6-2.6-1.5-3.6-2.5c-1-1.1-1.7-2.4-2.2-3.8c-0.5-1.5-0.8-3-0.8-4.6v-19h8.1v17.3
		c-0.1,1.5,0.4,3.1,1.3,4.3c1,1.2,2.6,1.9,4.2,1.7c1.6,0.1,3.1-0.5,4.2-1.6c1-1.2,1.5-2.7,1.5-4.3v-17.4h8.1v24.6
		c0,1.2,0,2.2,0.1,3.2s0.1,1.7,0.2,2.2H669.6z"/>
	<path d="M683.8,194.4c0-1.2,0.2-2.4,0.7-3.6c0.4-1,1.1-1.9,1.9-2.7c0.8-0.8,1.8-1.4,2.8-1.8c1.1-0.5,2.3-0.8,3.5-1l7.4-1.1
		c0.7,0,1.3-0.3,1.8-0.8c0.3-0.4,0.5-0.9,0.5-1.4c0-1.1-0.5-2.1-1.2-2.8c-2.4-2.1-6.1-1.8-8.2,0.6c-0.8,0.9-1.3,2-1.4,3.1l-7.2-1.5
		c0.1-1.2,0.5-2.4,1.1-3.5c0.6-1.2,1.5-2.3,2.5-3.2c1.2-1,2.5-1.8,3.9-2.3c1.7-0.6,3.5-0.9,5.4-0.9c2,0,4.1,0.3,6,0.9
		c1.5,0.5,2.9,1.4,4,2.5c1,1,1.8,2.3,2.3,3.6c0.5,1.4,0.7,2.9,0.7,4.3v14.8c0,0.8,0,1.7,0.1,2.6s0.2,1.6,0.2,2.2h-7.5
		c-0.1-0.6-0.2-1.1-0.2-1.7c-0.1-0.7-0.1-1.4-0.1-1.9c-2,2.9-5.3,4.6-8.8,4.4c-1.5,0-2.9-0.2-4.3-0.8c-1.2-0.5-2.3-1.1-3.3-2
		C684.7,199,683.7,196.8,683.8,194.4L683.8,194.4z M695.8,197.4c0.8,0,1.7-0.1,2.5-0.3c0.8-0.2,1.5-0.6,2.1-1.2
		c0.6-0.6,1.1-1.3,1.5-2.1c0.4-1.1,0.6-2.2,0.5-3.3v-1.4l-6.8,1c-1,0.1-1.9,0.6-2.6,1.2c-0.7,0.7-1.1,1.6-1,2.6c0,0.9,0.4,1.8,1,2.4
		C693.8,197,694.8,197.4,695.8,197.4L695.8,197.4z"/>
	<path d="M718.5,202.6v-44.2h8.1v44.2L718.5,202.6z"/>
	<path d="M734.3,162.7c0-1.4,0.5-2.7,1.5-3.6c1.9-2,5.1-2,7.1,0c0,0,0,0,0,0c0.9,1,1.5,2.3,1.4,3.6c0,2.8-2.3,5-5.1,4.9
		c-1.3,0-2.6-0.5-3.5-1.5C734.9,165.3,734.3,164,734.3,162.7z M735.3,202.6v-30h8.1v30H735.3z"/>
	<g>
		<path d="M750,202.6v-7.1l14.2-15.9h-13.8v-7h24.2v6.7L760,195.5h14.9v7.1L750,202.6z"/>
	</g>
	<g>
		<path d="M780,194.4c-0.1-2.4,0.9-4.7,2.6-6.3c0.8-0.8,1.8-1.4,2.8-1.8c1.1-0.5,2.3-0.8,3.5-1l7.4-1.1c0.7,0,1.3-0.3,1.8-0.8
			c0.3-0.4,0.5-0.9,0.5-1.4c0-1.1-0.5-2.1-1.2-2.8c-1.1-0.9-2.4-1.3-3.8-1.2c-2.9-0.2-5.5,1.9-5.7,4.9c0,0,0,0,0,0l-7.2-1.5
			c0.1-1.2,0.5-2.4,1.1-3.5c0.6-1.2,1.5-2.3,2.5-3.2c1.2-1,2.5-1.8,3.9-2.3c1.7-0.6,3.5-0.9,5.4-0.9c2,0,4.1,0.3,6,0.9
			c1.5,0.5,2.9,1.4,4.1,2.5c1,1,1.8,2.3,2.2,3.6c0.5,1.4,0.7,2.9,0.7,4.3v14.8c0,0.8,0,1.7,0.1,2.6s0.2,1.6,0.2,2.2h-7.4
			c-0.1-0.4-0.2-1-0.2-1.7s-0.1-1.4-0.1-1.9c-0.9,1.3-2,2.3-3.3,3.1c-1.7,1-3.6,1.4-5.5,1.3c-1.5,0-2.9-0.2-4.3-0.8
			c-1.2-0.5-2.3-1.1-3.3-2c-0.9-0.8-1.5-1.8-2-2.9C780.2,196.7,780,195.6,780,194.4z M792,197.4c0.8,0,1.7-0.1,2.5-0.3
			c0.8-0.2,1.5-0.6,2.1-1.2c0.6-0.6,1.1-1.3,1.5-2.1c0.4-1.1,0.6-2.2,0.5-3.3v-1.4l-6.8,1c-1,0.1-1.9,0.5-2.7,1.1
			c-0.7,0.7-1.1,1.6-1.1,2.6c0,0.9,0.4,1.8,1,2.4C789.9,197,790.9,197.4,792,197.4L792,197.4z"/>
	</g>
	<g>
		<path d="M824.6,172.6h6l0,7.2h-6l-0.1,12.5c-0.1,1,0.2,2,0.9,2.7c0.8,0.6,1.7,0.9,2.7,0.8c0.5,0,1,0,1.5,0c0.3,0,0.7-0.1,1-0.2
			l0,6.7c-0.5,0.2-1.1,0.4-1.7,0.5c-1,0.2-1.9,0.3-2.9,0.2c-2.6,0.1-5-0.8-6.9-2.5c-1.8-1.8-2.7-4.3-2.5-6.9l0.1-14H811l0-7.2h1.5
			c1.3,0.1,2.6-0.4,3.5-1.4c0.8-1,1.2-2.2,1.2-3.4v-4.2l7.3,0.1L824.6,172.6z"/>
	</g>
	<path d="M836.5,162.7c0-1.4,0.5-2.7,1.5-3.6c1.9-2,5.1-2,7.1,0c0,0,0,0,0,0c0.9,1,1.5,2.3,1.4,3.6c0,2.8-2.3,5-5.1,4.9
		c-1.3,0-2.6-0.5-3.5-1.5C837,165.3,836.4,164,836.5,162.7z M837.5,202.6v-30h8.1v30H837.5z"/>
	<path d="M867.7,171.6c2.1,0,4.3,0.4,6.3,1.2c3.8,1.5,6.8,4.5,8.3,8.3c0.8,2,1.2,4.2,1.2,6.4c0,2.2-0.4,4.3-1.2,6.4
		c-0.8,1.9-1.9,3.6-3.3,5c-1.4,1.4-3.1,2.6-5,3.3c-4,1.6-8.5,1.6-12.5,0c-1.9-0.8-3.6-1.9-5-3.3c-1.4-1.4-2.5-3.1-3.3-5
		c-0.8-2-1.2-4.2-1.2-6.4c0-2.2,0.4-4.4,1.2-6.4c1.5-3.8,4.5-6.8,8.3-8.3C863.4,172,865.5,171.6,867.7,171.6z M867.7,196.1
		c1,0,2-0.2,2.9-0.6c0.9-0.4,1.8-0.9,2.4-1.6c0.7-0.8,1.3-1.7,1.7-2.6c0.9-2.4,0.9-5,0-7.4c-0.4-1-1-1.9-1.7-2.7
		c-0.7-0.7-1.5-1.3-2.4-1.6c-1.8-0.7-3.9-0.7-5.7,0c-0.9,0.4-1.8,0.9-2.4,1.6c-0.7,0.8-1.3,1.7-1.7,2.7c-0.9,2.4-0.9,5,0,7.4
		c0.4,1,1,1.9,1.7,2.6c0.7,0.7,1.5,1.3,2.4,1.6C865.7,195.9,866.7,196.1,867.7,196.1L867.7,196.1z"/>
	<path d="M897.9,202.6h-8.1v-30h7.9v3.7c0.9-1.5,2.2-2.7,3.8-3.4c3.1-1.4,6.6-1.5,9.7-0.2c1.3,0.6,2.5,1.5,3.4,2.5
		c0.9,1.1,1.6,2.4,2,3.8c0.4,1.5,0.6,3.1,0.6,4.6v18.9h-8.1v-17.5c0.1-1.5-0.4-3-1.3-4.3c-2.3-2.3-6-2.3-8.3,0c0,0,0,0-0.1,0.1
		c-1,1.3-1.5,2.8-1.5,4.4V202.6z"/>
</g>
<g>
	<path d="M71.1,65.5c-2.9,0-5.3-2.4-5.3-5.3V12.3c0-2.9,2.4-5.3,5.3-5.3H119c2.9,0,5.3,2.4,5.3,5.3v47.9c0,2.9-2.4,5.3-5.3,5.3
		L71.1,65.5z"/>
	<path d="M137,65.5c-2.9,0-5.3-2.4-5.3-5.3V12.3c0-2.9,2.4-5.3,5.3-5.3h47.9c2.9,0,5.3,2.4,5.3,5.3v47.9c0,2.9-2.4,5.3-5.3,5.3
		L137,65.5z"/>
	<path d="M5.3,131.3c-2.9,0-5.3-2.4-5.3-5.3V78.1c0-2.9,2.4-5.3,5.3-5.3h47.9c2.9,0,5.3,2.4,5.3,5.3V126c0,2.9-2.4,5.3-5.3,5.3H5.3z
		"/>
	<path d="M71.1,197.1c-2.9,0-5.3-2.4-5.3-5.3v-47.9c0-2.9,2.4-5.3,5.3-5.3H119c2.9,0,5.3,2.4,5.3,5.3v47.9c0,2.9-2.4,5.3-5.3,5.3
		L71.1,197.1z"/>
	<path d="M137,197.1c-2.9,0-5.3-2.4-5.3-5.3v-47.9c0-2.9,2.4-5.3,5.3-5.3h47.9c2.9,0,5.3,2.4,5.3,5.3v47.9c0,2.9-2.4,5.3-5.3,5.3
		L137,197.1z"/>
	<path d="M251.3,65.8h-47.9c-3.5,0-6.3-2.8-6.3-6.3V11.6c0-3.5,2.8-6.3,6.3-6.3h47.9c3.5,0,6.3,2.8,6.3,6.3v47.9
		C257.7,63,254.8,65.8,251.3,65.8z M203.5,7.3c-2.4,0-4.3,1.9-4.3,4.3v47.9c0,2.4,2,4.3,4.3,4.3h47.9c2.4,0,4.3-1.9,4.3-4.3V11.6
		c0-2.4-1.9-4.3-4.3-4.3H203.5z"/>
	<path d="M317.1,65.8h-47.8c-3.5,0-6.3-2.8-6.3-6.3V11.6c0-3.5,2.8-6.3,6.3-6.3h47.8c3.5,0,6.3,2.8,6.3,6.3v47.9
		C323.5,63,320.6,65.8,317.1,65.8z M269.3,63.8h47.8c2.4,0,4.3-1.9,4.3-4.3V11.6c0-2.4-1.9-4.3-4.3-4.3h-47.8c-2.4,0-4.3,2-4.3,4.3
		v47.9C265,61.9,266.9,63.8,269.3,63.8z"/>
	<path d="M137.6,131.6L137.6,131.6c-3.5,0-6.3-2.8-6.3-6.3V77.5c0-3.5,2.8-6.3,6.3-6.3h47.9c3.5,0,6.3,2.8,6.3,6.3v47.8
		c0,3.5-2.8,6.3-6.3,6.3L137.6,131.6z M137.6,73.1c-2.4,0-4.3,1.9-4.3,4.3v47.9c0,2.4,1.9,4.3,4.3,4.3l47.9,0c2.4,0,4.3-1.9,4.3-4.3
		V77.5c0-2.4-1.9-4.3-4.3-4.3H137.6z"/>
	<path d="M251.4,197.5l-47.9,0c-3.5,0-6.3-2.8-6.3-6.3v-47.9c0-3.5,2.8-6.3,6.3-6.3h47.9c3.5,0,6.3,2.8,6.3,6.3v47.9
		C257.7,194.6,254.8,197.5,251.4,197.5z M203.5,195.5l47.9,0c2.4,0,4.3-1.9,4.3-4.3v-47.9c0-2.4-1.9-4.3-4.3-4.3h-47.9
		c-2.4,0-4.3,1.9-4.3,4.3v47.9C199.2,193.5,201.1,195.5,203.5,195.5L203.5,195.5z"/>
	<path d="M317.1,197.5l-47.8,0c-3.5,0-6.3-2.8-6.3-6.3v-47.9c0-3.5,2.8-6.3,6.3-6.3h47.8c3.5,0,6.3,2.8,6.3,6.3v47.9
		C323.5,194.6,320.6,197.5,317.1,197.5z M269.3,195.5l47.8,0c2.4,0,4.3-1.9,4.3-4.3v-47.9c0-2.4-1.9-4.3-4.3-4.3h-47.8
		c-2.4,0-4.3,1.9-4.3,4.3v47.9C265,193.5,266.9,195.5,269.3,195.5L269.3,195.5z"/>
	<path d="M388.3,126.7c0,2.9-2.4,5.3-5.3,5.3h-47.9c-2.9,0-5.3-2.4-5.3-5.3V78.8c0-2.9,2.4-5.3,5.3-5.3H383c2.9,0,5.3,2.4,5.3,5.3
		L388.3,126.7z"/>
	<path d="M388.3,60.8c0,2.9-2.4,5.3-5.3,5.3h-47.9c-2.9,0-5.3-2.4-5.3-5.3V12.9c0-2.9,2.4-5.3,5.3-5.3H383c2.9,0,5.3,2.4,5.3,5.3
		L388.3,60.8z"/>
	<path d="M454.1,192.5c0,2.9-2.4,5.3-5.3,5.3H401c-2.9,0-5.3-2.4-5.3-5.3v-47.9c0-2.9,2.4-5.3,5.3-5.3h47.9c2.9,0,5.3,2.4,5.3,5.3
		L454.1,192.5z"/>
	<path d="M520,126.7c0,2.9-2.4,5.3-5.3,5.3h-47.9c-2.9,0-5.3-2.4-5.3-5.3V78.8c0-2.9,2.4-5.3,5.3-5.3h47.9c2.9,0,5.3,2.4,5.3,5.3
		V126.7z"/>
	<path d="M520,60.8c0,2.9-2.4,5.3-5.3,5.3h-47.9c-2.9,0-5.3-2.4-5.3-5.3V12.9c0-2.9,2.4-5.3,5.3-5.3h47.9c2.9,0,5.3,2.4,5.3,5.3
		V60.8z"/>
</g>
</svg>
