<svg id="ccv-logo" xmlns="http://www.w3.org/2000/svg" viewBox="0 0 987.91 203.48">
  <defs>
    <style>
      .a {
        isolation: isolate;
      }

      .b {
        fill: none;
      }
    </style>
  </defs>
  <title>CCV</title>
  <g>
    <g class="a">
      <path d="M587.45,66.79c5.86,1,10.56,3.6,10.56,9.76,0,4.09-2.2,7.26-5.86,9.21-3.17,1.77-7.26,2.5-12.08,2.5H566.29v-2c5.36-.37,5.67-.73,5.67-5.73V56.3c0-5-.18-5.37-5.19-5.74v-2h16.05c4.57,0,7.26.67,9.21,2.07a8.29,8.29,0,0,1,3.42,7c0,5.73-4.82,8.11-8,9Zm-7.2-.79c6.53,0,9.46-2.57,9.46-7.63,0-4.15-2.38-7.62-8.11-7.62a7.39,7.39,0,0,0-3.54.67c-.55.36-.79,1-.79,2.92V66Zm-3,14.52c0,4.27,1.09,5.43,5.12,5.43,5-.07,9.52-2.51,9.52-8.85s-4.46-8.78-11.78-8.78h-2.86Z" transform="translate(-5 -47.7)"/>
    </g>
    <g class="a">
      <path d="M639.12,88.75c-.86,0-1.59,0-2.38-.06-4.39-.24-7-1.52-9.82-5.55-2.14-2.93-4.34-6.77-6.1-9.7-1-1.65-2.08-2.38-5.31-2.38h-2v9.4c0,5.12.54,5.42,5.49,5.79v2H602.64v-2c5.12-.37,5.61-.67,5.61-5.79V56.36c0-5.19-.49-5.37-5.31-5.8v-2h15.44c4.45,0,7.44.49,9.76,2a9.13,9.13,0,0,1,4.14,8.06c0,5.24-3.17,8.48-7.68,10.49,1,2,3.6,6,5.43,8.72a45.77,45.77,0,0,0,4.82,6.23,9.6,9.6,0,0,0,4.51,2.8ZM616.48,68.86c3.12,0,5.13-.54,6.72-1.77,2.31-1.83,3.29-4.2,3.29-7.44,0-6.53-4.45-8.84-9-8.84a5.62,5.62,0,0,0-3.29.67c-.49.36-.67,1.1-.67,2.62V68.86Z" transform="translate(-5 -47.7)"/>
    </g>
    <g class="a">
      <path d="M681.76,68c0,13.24-9.33,21.23-20.62,21.23-11,0-20-8.54-20-20.38,0-11,7.81-21.1,20.75-21.1A19.73,19.73,0,0,1,681.76,68Zm-34.22-.79c0,11.28,6.41,19.58,15,19.58,6.71,0,12.81-5.49,12.81-17.2,0-12.82-6.84-19.4-14.71-19.4C653.82,50.14,647.54,55.75,647.54,67.16Z" transform="translate(-5 -47.7)"/>
    </g>
    <path d="M742.52,50.56c-4.21.55-4.76,1.1-6.53,5.92-1.4,3.72-5.12,15.31-10.12,32.33h-2.2c-3.35-9.7-7.26-20.74-10.61-30.13h-.13C709.52,69.35,706.1,79,703,88.81h-2.2c-3.17-11-6.65-21.53-10-32.39-1.53-4.88-2.5-5.43-6.16-5.86v-2H699.7v2c-4.52.55-4.64,1-3.79,4,2.44,8.17,4.76,16.22,7.45,24.89h.12C706.77,69,710.19,59,713.3,49.16h2.07c3.42,9.94,6.9,19.7,10.62,30.32h.12c2.56-8.11,6-20,6.89-24.16.8-3.54.55-4.21-4.08-4.76v-2h13.6Z" transform="translate(-5 -47.7)"/>
    <path d="M788.27,50.56c-3.48.19-5,1-5.31,3.48a90.21,90.21,0,0,0-.36,10.43V88.81h-2.14L754.6,57.15h-.13V72c0,5.49.19,8.42.37,10.25.3,3,1.77,3.78,6,4v2h-15v-2c3.48-.18,5.13-1,5.43-3.84A87,87,0,0,0,751.73,72V58.8c0-4.39-.12-4.58-1.28-6s-2.63-1.95-5.49-2.2v-2h9.27l25.38,30.32h.18V64.47a89.58,89.58,0,0,0-.43-10.25c-.3-2.62-1.83-3.41-6.1-3.66v-2h15Z" transform="translate(-5 -47.7)"/>
    <g class="a">
      <path d="M588.55,143.18a23,23,0,0,1-8.54-1.59,21.17,21.17,0,0,1-7-4.51,21.42,21.42,0,0,1-4.78-7.08,25.35,25.35,0,0,1,0-18.69A21.23,21.23,0,0,1,580.1,99.69a22.31,22.31,0,0,1,8.33-1.59,23.18,23.18,0,0,1,7.9,1.25,18.89,18.89,0,0,1,5.85,3.29,17.9,17.9,0,0,1,3.91,4.61,20.67,20.67,0,0,1,2.16,5.18l-7.93,2.51a12.82,12.82,0,0,0-1.22-3.12,9.82,9.82,0,0,0-2.28-2.8,11.91,11.91,0,0,0-3.51-2,14.34,14.34,0,0,0-9.7.09,12.59,12.59,0,0,0-4.27,2.65,13,13,0,0,0-3.05,4.51,16.44,16.44,0,0,0-1.16,6.41,15.59,15.59,0,0,0,1.13,6.13,13.35,13.35,0,0,0,3,4.45,12.78,12.78,0,0,0,4.27,2.75,13.61,13.61,0,0,0,5,.94,13.22,13.22,0,0,0,4.85-.82A12.2,12.2,0,0,0,597,132a11.76,11.76,0,0,0,2.38-2.84,13.21,13.21,0,0,0,1.34-3.08l7.87,2.38a19.45,19.45,0,0,1-2.11,5.09,18.11,18.11,0,0,1-4,4.73,20.85,20.85,0,0,1-5.92,3.51A21.69,21.69,0,0,1,588.55,143.18Z" transform="translate(-5 -47.7)"/>
    </g>
    <path d="M640.83,133.66a12.79,12.79,0,0,1-4.64,6.71,13.78,13.78,0,0,1-4,2,16.08,16.08,0,0,1-5,.76,16.53,16.53,0,0,1-5.92-1.07,14.31,14.31,0,0,1-4.94-3.14,15.05,15.05,0,0,1-3.39-5.06,17.46,17.46,0,0,1-1.25-6.77,16.88,16.88,0,0,1,1.22-6.53,15.19,15.19,0,0,1,3.27-5,14.77,14.77,0,0,1,4.72-3.18,14.22,14.22,0,0,1,5.55-1.12q7,0,10.92,4.14t3.91,11.41q0,.85-.06,1.62c0,.51-.06.8-.06.88H619.66a6.6,6.6,0,0,0,.7,2.72,7.47,7.47,0,0,0,4,3.6,8,8,0,0,0,2.87.51,7,7,0,0,0,4.48-1.28,7.27,7.27,0,0,0,2.35-3.29Zm-7.56-9.82a7.45,7.45,0,0,0-.46-2.16,5.13,5.13,0,0,0-1.22-1.89,6.34,6.34,0,0,0-2.08-1.35,7.78,7.78,0,0,0-3-.52,6.87,6.87,0,0,0-2.81.55,7,7,0,0,0-2.07,1.41,6.34,6.34,0,0,0-1.32,1.89,6,6,0,0,0-.51,2.07Z" transform="translate(-5 -47.7)"/>
    <path d="M655.77,142.26h-8.11v-30h7.87V116a8.54,8.54,0,0,1,3.81-3.41,12,12,0,0,1,9.7-.16,9.88,9.88,0,0,1,3.39,2.54,10.18,10.18,0,0,1,2,3.78,16.34,16.34,0,0,1,.64,4.63v18.91h-8.11v-17.5a6.83,6.83,0,0,0-1.31-4.27,5.89,5.89,0,0,0-8.39.09,6.75,6.75,0,0,0-1.47,4.42Z" transform="translate(-5 -47.7)"/>
    <g class="a">
      <path d="M693.28,112.25h6v7.2h-6V132a3.44,3.44,0,0,0,.89,2.71,4,4,0,0,0,2.65.76q.73,0,1.47-.06a4,4,0,0,0,1-.18V142a9.72,9.72,0,0,1-1.68.49,14.24,14.24,0,0,1-2.89.24,9.67,9.67,0,0,1-7-2.44,9,9,0,0,1-2.56-6.83v-14H679.8v-7.2h1.53a4.28,4.28,0,0,0,3.5-1.37,5.12,5.12,0,0,0,1.13-3.39v-4.2h7.32Z" transform="translate(-5 -47.7)"/>
    </g>
    <path d="M732.81,133.66a12.79,12.79,0,0,1-4.64,6.71,13.78,13.78,0,0,1-4,2,16.08,16.08,0,0,1-5,.76,16.53,16.53,0,0,1-5.92-1.07,14.31,14.31,0,0,1-4.94-3.14,15.05,15.05,0,0,1-3.39-5.06,17.46,17.46,0,0,1-1.25-6.77,16.88,16.88,0,0,1,1.22-6.53,15,15,0,0,1,3.27-5,14.77,14.77,0,0,1,4.72-3.18,14.22,14.22,0,0,1,5.55-1.12q7,0,10.92,4.14t3.91,11.41q0,.85-.06,1.62c0,.51-.06.8-.06.88H711.64a6.6,6.6,0,0,0,.7,2.72,7.47,7.47,0,0,0,4,3.6,8,8,0,0,0,2.87.51,7,7,0,0,0,4.48-1.28,7.27,7.27,0,0,0,2.35-3.29Zm-7.56-9.82a7.45,7.45,0,0,0-.46-2.16,5.13,5.13,0,0,0-1.22-1.89,6.4,6.4,0,0,0-2.07-1.35,7.87,7.87,0,0,0-3-.52,6.87,6.87,0,0,0-2.81.55,7,7,0,0,0-2.07,1.41,6.34,6.34,0,0,0-1.32,1.89,6,6,0,0,0-.51,2.07Z" transform="translate(-5 -47.7)"/>
    <path d="M757.94,120.3a12.61,12.61,0,0,0-2.44-.24,10.05,10.05,0,0,0-3,.43,6.07,6.07,0,0,0-2.44,1.4,7,7,0,0,0-1.67,2.59,11,11,0,0,0-.65,4.06v13.72h-8.11v-30h7.87v4.46a7.3,7.3,0,0,1,1.74-2.42,8.18,8.18,0,0,1,2.26-1.43,10.47,10.47,0,0,1,2.38-.67,14.49,14.49,0,0,1,2.16-.18c.33,0,.64,0,1,0l.94.09Z" transform="translate(-5 -47.7)"/>
    <g class="a">
      <path d="M792.47,104.81A6.3,6.3,0,0,0,791,105a3.75,3.75,0,0,0-1.37.64,3.61,3.61,0,0,0-1,1.25,4.73,4.73,0,0,0-.39,2.08v3.29H795v7h-6.77v23h-8.18v-23h-5v-7h5v-3.41a13.07,13.07,0,0,1,.77-4.61,9.56,9.56,0,0,1,5.64-5.76,12.16,12.16,0,0,1,4.51-.8,14.1,14.1,0,0,1,2.41.19,6.19,6.19,0,0,1,1.62.42v6.83a4.38,4.38,0,0,0-.92-.21A11.68,11.68,0,0,0,792.47,104.81Z" transform="translate(-5 -47.7)"/>
    </g>
    <path d="M813.09,111.34a16.14,16.14,0,0,1,6.25,1.19,15.06,15.06,0,0,1,5,3.29,14.86,14.86,0,0,1,3.3,5,16.93,16.93,0,0,1,1.19,6.41,16.65,16.65,0,0,1-1.19,6.37,15.41,15.41,0,0,1-3.3,5,14.83,14.83,0,0,1-5,3.32,17,17,0,0,1-12.5,0,14.83,14.83,0,0,1-5-3.32,15.41,15.41,0,0,1-3.3-5,16.65,16.65,0,0,1-1.19-6.37,16.93,16.93,0,0,1,1.19-6.41,14.86,14.86,0,0,1,3.3-5,15.06,15.06,0,0,1,5-3.29A16.14,16.14,0,0,1,813.09,111.34Zm0,24.46a8,8,0,0,0,2.87-.55,7,7,0,0,0,2.44-1.62,8,8,0,0,0,1.67-2.65,11.13,11.13,0,0,0,0-7.44,8,8,0,0,0-1.67-2.66,6.79,6.79,0,0,0-2.44-1.61,7.76,7.76,0,0,0-5.74,0,6.79,6.79,0,0,0-2.44,1.61,8,8,0,0,0-1.67,2.66,11,11,0,0,0,0,7.44,8,8,0,0,0,1.67,2.65,7,7,0,0,0,2.44,1.62A8,8,0,0,0,813.09,135.8Z" transform="translate(-5 -47.7)"/>
    <path d="M853.53,120.3a12.54,12.54,0,0,0-2.44-.24,10.1,10.1,0,0,0-3,.43,6.14,6.14,0,0,0-2.44,1.4,7,7,0,0,0-1.67,2.59,11,11,0,0,0-.64,4.06v13.72h-8.12v-30h7.87v4.46a7.3,7.3,0,0,1,1.74-2.42,8.18,8.18,0,0,1,2.26-1.43,10.47,10.47,0,0,1,2.38-.67,14.49,14.49,0,0,1,2.16-.18c.33,0,.64,0,1,0l.94.09Z" transform="translate(-5 -47.7)"/>
    <g class="a">
      <path d="M588.55,197.18a23,23,0,0,1-8.54-1.59,21.17,21.17,0,0,1-7-4.51,21.42,21.42,0,0,1-4.78-7.08,25.35,25.35,0,0,1,0-18.69,21.23,21.23,0,0,1,11.89-11.62,22.31,22.31,0,0,1,8.33-1.59,23.18,23.18,0,0,1,7.9,1.25,18.91,18.91,0,0,1,5.85,3.3,17.7,17.7,0,0,1,3.91,4.6,20.58,20.58,0,0,1,2.16,5.19l-7.93,2.5a12.82,12.82,0,0,0-1.22-3.12,9.82,9.82,0,0,0-2.28-2.8,11.91,11.91,0,0,0-3.51-2,14.34,14.34,0,0,0-9.7.09,12.59,12.59,0,0,0-4.27,2.65,13,13,0,0,0-3.05,4.52,16.39,16.39,0,0,0-1.16,6.4,15.59,15.59,0,0,0,1.13,6.13,13.35,13.35,0,0,0,3,4.45,12.78,12.78,0,0,0,4.27,2.75,13.61,13.61,0,0,0,5,.94,13.22,13.22,0,0,0,4.85-.82A12.2,12.2,0,0,0,597,186a11.76,11.76,0,0,0,2.38-2.84,13.21,13.21,0,0,0,1.34-3.08l7.87,2.38a19.45,19.45,0,0,1-2.11,5.09,18.11,18.11,0,0,1-4,4.73,20.85,20.85,0,0,1-5.92,3.51A21.69,21.69,0,0,1,588.55,197.18Z" transform="translate(-5 -47.7)"/>
    </g>
    <path d="M627.41,165.34a16.14,16.14,0,0,1,6.25,1.19,15.2,15.2,0,0,1,5,3.29,15,15,0,0,1,3.29,5,17,17,0,0,1,1.19,6.41,16.65,16.65,0,0,1-1.19,6.37,15.55,15.55,0,0,1-3.29,5,15,15,0,0,1-5,3.32,17,17,0,0,1-12.5,0,14.83,14.83,0,0,1-5-3.32,15.57,15.57,0,0,1-3.3-5,16.65,16.65,0,0,1-1.19-6.37,17,17,0,0,1,1.19-6.41,14.8,14.8,0,0,1,8.3-8.32A16.14,16.14,0,0,1,627.41,165.34Zm0,24.46a8,8,0,0,0,2.87-.55,7,7,0,0,0,2.44-1.62,8,8,0,0,0,1.67-2.65,11,11,0,0,0,0-7.44,8.1,8.1,0,0,0-1.67-2.66,6.79,6.79,0,0,0-2.44-1.61,7.76,7.76,0,0,0-5.74,0,6.79,6.79,0,0,0-2.44,1.61,8.1,8.1,0,0,0-1.67,2.66,11.13,11.13,0,0,0,0,7.44,8,8,0,0,0,1.67,2.65,7,7,0,0,0,2.44,1.62A8,8,0,0,0,627.41,189.8Z" transform="translate(-5 -47.7)"/>
    <path d="M649.55,196.26v-30h7.75v3.66a7.4,7.4,0,0,1,1.59-1.95,8.8,8.8,0,0,1,2.16-1.4,13.17,13.17,0,0,1,2.5-.86,11.39,11.39,0,0,1,2.53-.3,11,11,0,0,1,5.43,1.28A8.05,8.05,0,0,1,675,170.4a10.2,10.2,0,0,1,4.15-3.87,12.23,12.23,0,0,1,5.37-1.13,12.71,12.71,0,0,1,4,.64,9.57,9.57,0,0,1,3.48,2,10.15,10.15,0,0,1,2.44,3.57,13.19,13.19,0,0,1,.91,5.16v19.45H687.5V178.45a6.43,6.43,0,0,0-1.25-4,4.82,4.82,0,0,0-4.06-1.62,5.06,5.06,0,0,0-4.09,1.74,6.25,6.25,0,0,0-1.46,4.18v17.56h-8.06V178.45a6.27,6.27,0,0,0-1.28-4,4.8,4.8,0,0,0-4-1.62,5.17,5.17,0,0,0-4.15,1.71,6.22,6.22,0,0,0-1.46,4.21v17.56Z" transform="translate(-5 -47.7)"/>
    <g class="a">
      <path d="M703.6,207.85v-41.6h7.87v3.66a8.5,8.5,0,0,1,3.41-3,12.15,12.15,0,0,1,5.8-1.28,13.81,13.81,0,0,1,5.86,1.19,12.77,12.77,0,0,1,4.36,3.29,14.24,14.24,0,0,1,2.71,4.95,20,20,0,0,1,.92,6.19,19.11,19.11,0,0,1-1,6.31,14.75,14.75,0,0,1-2.87,5,13.15,13.15,0,0,1-4.48,3.3,13.93,13.93,0,0,1-5.8,1.19,12.24,12.24,0,0,1-5.33-1.07,8.52,8.52,0,0,1-3.33-2.59v14.51Zm22.94-26.59a8.48,8.48,0,0,0-2.17-6.22,7.1,7.1,0,0,0-5.28-2.2,7.22,7.22,0,0,0-2.92.58,7.33,7.33,0,0,0-4,4.27,11.28,11.28,0,0,0,0,7.14,7.71,7.71,0,0,0,1.62,2.65,7.17,7.17,0,0,0,2.38,1.68,7.39,7.39,0,0,0,2.92.58,7.06,7.06,0,0,0,5.28-2.23A8.6,8.6,0,0,0,726.54,181.26Z" transform="translate(-5 -47.7)"/>
    </g>
    <g class="a">
      <path d="M760.45,196.26a8.48,8.48,0,0,1-.18-1.4q-.06-.92-.06-1.83a7,7,0,0,1-3.57,3.08,12.59,12.59,0,0,1-4.73.95,11.72,11.72,0,0,1-4.85-.95,10.86,10.86,0,0,1-3.57-2.53,10.7,10.7,0,0,1-2.22-3.75,13.72,13.72,0,0,1-.77-4.61v-19h8.12v17.33a6.92,6.92,0,0,0,1.31,4.3,4.89,4.89,0,0,0,4.18,1.73,5.33,5.33,0,0,0,4.21-1.64,6.21,6.21,0,0,0,1.46-4.27V166.25h8.11v24.59c0,1.18,0,2.24.09,3.2s.14,1.7.22,2.22Z" transform="translate(-5 -47.7)"/>
    </g>
    <g class="a">
      <path d="M786.55,166.25h6v7.2h-6V186a3.44,3.44,0,0,0,.89,2.71,4,4,0,0,0,2.65.76c.49,0,1,0,1.46-.06a4,4,0,0,0,1-.18V196a9.72,9.72,0,0,1-1.68.49,14.24,14.24,0,0,1-2.89.24,9.67,9.67,0,0,1-7-2.44,9,9,0,0,1-2.56-6.83v-14h-5.43v-7.2h1.53a4.28,4.28,0,0,0,3.5-1.37,5.12,5.12,0,0,0,1.13-3.39v-4.2h7.32Z" transform="translate(-5 -47.7)"/>
    </g>
    <g class="a">
      <path d="M797.84,188.09a8.29,8.29,0,0,1,2.62-6.28A9.18,9.18,0,0,1,803.3,180a15.73,15.73,0,0,1,3.51-1l7.38-1.1a2.76,2.76,0,0,0,1.77-.76,2.08,2.08,0,0,0,.48-1.37,3.62,3.62,0,0,0-1.25-2.75,5.44,5.44,0,0,0-3.81-1.16,5.31,5.31,0,0,0-5.73,4.88l-7.2-1.52a9.87,9.87,0,0,1,1.1-3.54,10.78,10.78,0,0,1,2.5-3.17,12.6,12.6,0,0,1,3.9-2.29,15,15,0,0,1,5.37-.88,17.14,17.14,0,0,1,6,.94,11.39,11.39,0,0,1,4.06,2.5,9.29,9.29,0,0,1,2.25,3.63,13.41,13.41,0,0,1,.7,4.33v14.77c0,.81,0,1.67.13,2.59s.16,1.64.24,2.16H817.3c-.08-.4-.15-1-.22-1.67s-.09-1.36-.09-1.92a10.51,10.51,0,0,1-3.32,3.11,10.4,10.4,0,0,1-5.52,1.34,11.72,11.72,0,0,1-4.3-.76,10.33,10.33,0,0,1-3.27-2,8.64,8.64,0,0,1-2-2.86A8.4,8.4,0,0,1,797.84,188.09Zm12,3a8.87,8.87,0,0,0,2.47-.34,5.17,5.17,0,0,0,2.1-1.16,5.86,5.86,0,0,0,1.47-2.13,8.76,8.76,0,0,0,.54-3.32v-1.35l-6.77,1A5.32,5.32,0,0,0,807,185,3.25,3.25,0,0,0,806,187.6a3.47,3.47,0,0,0,1,2.41A3.77,3.77,0,0,0,809.86,191.08Z" transform="translate(-5 -47.7)"/>
    </g>
    <g class="a">
      <path d="M842.36,166.25h6v7.2h-6V186a3.44,3.44,0,0,0,.89,2.71,4,4,0,0,0,2.65.76q.74,0,1.47-.06a4,4,0,0,0,1-.18V196a9.72,9.72,0,0,1-1.68.49,14.24,14.24,0,0,1-2.89.24,9.67,9.67,0,0,1-7-2.44,9,9,0,0,1-2.56-6.83v-14h-5.43v-7.2h1.53a4.32,4.32,0,0,0,3.51-1.37,5.17,5.17,0,0,0,1.12-3.39v-4.2h7.32Z" transform="translate(-5 -47.7)"/>
    </g>
    <path d="M854.32,156.43a4.9,4.9,0,0,1,1.47-3.6,5,5,0,0,1,7.1,0,5,5,0,0,1,1.44,3.6,5,5,0,0,1-8.54,3.48A4.76,4.76,0,0,1,854.32,156.43Zm1,39.83v-30h8.11v30Z" transform="translate(-5 -47.7)"/>
    <path d="M885.55,165.34a16.19,16.19,0,0,1,6.26,1.19,14.75,14.75,0,0,1,8.29,8.32,16.77,16.77,0,0,1,1.19,6.41,16.46,16.46,0,0,1-1.19,6.37,15.55,15.55,0,0,1-3.29,5,14.83,14.83,0,0,1-5,3.32,17,17,0,0,1-12.51,0,14.83,14.83,0,0,1-5-3.32,15.55,15.55,0,0,1-3.29-5,16.46,16.46,0,0,1-1.19-6.37,16.77,16.77,0,0,1,1.19-6.41,14.75,14.75,0,0,1,8.29-8.32A16.18,16.18,0,0,1,885.55,165.34Zm0,24.46a7.91,7.91,0,0,0,2.87-.55,6.86,6.86,0,0,0,2.44-1.62,8.13,8.13,0,0,0,1.68-2.65,11.13,11.13,0,0,0,0-7.44,8.29,8.29,0,0,0-1.68-2.66,6.71,6.71,0,0,0-2.44-1.61,7.74,7.74,0,0,0-5.73,0,6.71,6.71,0,0,0-2.44,1.61,8.29,8.29,0,0,0-1.68,2.66,11.13,11.13,0,0,0,0,7.44,8.13,8.13,0,0,0,1.68,2.65,6.86,6.86,0,0,0,2.44,1.62A7.9,7.9,0,0,0,885.55,189.8Z" transform="translate(-5 -47.7)"/>
    <path d="M915.81,196.26H907.7v-30h7.87V170a8.44,8.44,0,0,1,3.81-3.41,12,12,0,0,1,9.7-.16,9.75,9.75,0,0,1,3.38,2.54,10.05,10.05,0,0,1,2,3.78,16.71,16.71,0,0,1,.64,4.63v18.91H927v-17.5a6.77,6.77,0,0,0-1.31-4.27,5.89,5.89,0,0,0-8.39.09,6.8,6.8,0,0,0-1.46,4.42Z" transform="translate(-5 -47.7)"/>
    <g class="a">
      <path d="M978,191.57a21.24,21.24,0,0,1-5.28,4,13.27,13.27,0,0,1-6.31,1.5,14.67,14.67,0,0,1-5.62-1,13,13,0,0,1-4.11-2.62,10.82,10.82,0,0,1-2.53-3.69,11.15,11.15,0,0,1-.86-4.27,11.74,11.74,0,0,1,.52-3.63,11.88,11.88,0,0,1,1.46-3,15.47,15.47,0,0,1,2.32-2.66c.92-.83,1.94-1.67,3.08-2.53l.31-.18-.67-.73a21.84,21.84,0,0,1-1.62-1.83,18.6,18.6,0,0,1-1.52-2.23,13.2,13.2,0,0,1-1.16-2.53,8.49,8.49,0,0,1-.46-2.81,10.63,10.63,0,0,1,3.78-8.38,12,12,0,0,1,3.84-2.17,13.26,13.26,0,0,1,4.33-.73,14.12,14.12,0,0,1,4.79.79,11.19,11.19,0,0,1,3.82,2.23,10.35,10.35,0,0,1,2.5,3.45,10.6,10.6,0,0,1,.91,4.45A8.89,8.89,0,0,1,979,166a11.09,11.09,0,0,1-1.37,2.65,14.45,14.45,0,0,1-2,2.26,24.6,24.6,0,0,1-2.26,1.89l-1.64,1.22,6.52,6.89,10.92-11.4v10.12l-6,6.35,9.76,10.24H982.42ZM966.5,190a6.33,6.33,0,0,0,3.48-1,18.2,18.2,0,0,0,3.11-2.63l-7.38-7.81-.92.68a11,11,0,0,0-2.53,2.47,5.42,5.42,0,0,0-1,3.26,5,5,0,0,0,1.41,3.45A4.84,4.84,0,0,0,966.5,190Zm-3.29-26.9a4.45,4.45,0,0,0,.85,2.62,15.21,15.21,0,0,0,1.71,2.08l1.16,1.28,2.13-1.59a7,7,0,0,0,2.14-2.22,5,5,0,0,0,.61-2.35,4,4,0,0,0-1.22-3,4.4,4.4,0,0,0-3.18-1.19,4.52,4.52,0,0,0-2.86,1.07A3.9,3.9,0,0,0,963.21,163.08Z" transform="translate(-5 -47.7)"/>
    </g>
    <path d="M596.42,207h8.91l-16.05,43.24h-8.66l-16-43.24h9.21l11.28,32.14Z" transform="translate(-5 -47.7)"/>
    <path d="M609.29,210.43a4.93,4.93,0,0,1,1.46-3.6,5.06,5.06,0,0,1,7.11,0,4.94,4.94,0,0,1,1.43,3.6,4.93,4.93,0,0,1-5,4.94,4.86,4.86,0,0,1-3.54-1.46A4.79,4.79,0,0,1,609.29,210.43Zm1,39.83v-30h8.11v30Z" transform="translate(-5 -47.7)"/>
    <g class="a">
      <path d="M631.43,240.38a5,5,0,0,0,1.47,3.17,5.29,5.29,0,0,0,4,1.41,4.34,4.34,0,0,0,3-.89,2.75,2.75,0,0,0,1-2.1,2.52,2.52,0,0,0-.74-1.8,4.7,4.7,0,0,0-2.5-1.13l-4-.91a11.21,11.21,0,0,1-6.41-3.39,8.47,8.47,0,0,1-2-5.58,8.77,8.77,0,0,1,.85-3.81,9.73,9.73,0,0,1,2.35-3.12,11.94,11.94,0,0,1,3.54-2.1,12.26,12.26,0,0,1,4.48-.79,14.37,14.37,0,0,1,5.37.88,10.63,10.63,0,0,1,3.57,2.23,9.13,9.13,0,0,1,2,2.83,8.9,8.9,0,0,1,.8,2.72l-6.77,1.52a8.71,8.71,0,0,0-.4-1.37,3.86,3.86,0,0,0-.89-1.31,4.49,4.49,0,0,0-1.49-1,5.74,5.74,0,0,0-2.16-.36,4.37,4.37,0,0,0-2.72.85,2.59,2.59,0,0,0-1.13,2.14,2.28,2.28,0,0,0,.76,1.77,4.22,4.22,0,0,0,2,.91l4.27.92a11.88,11.88,0,0,1,6.68,3.41,8.47,8.47,0,0,1,2.22,5.8,9.65,9.65,0,0,1-.7,3.6,9,9,0,0,1-2.16,3.17,11,11,0,0,1-3.66,2.25,14.14,14.14,0,0,1-5.13.86,14.77,14.77,0,0,1-5.73-1,12.06,12.06,0,0,1-3.78-2.38,9.27,9.27,0,0,1-2.17-3,9.55,9.55,0,0,1-.82-2.89Z" transform="translate(-5 -47.7)"/>
    </g>
    <path d="M674.56,250.26a8.48,8.48,0,0,1-.18-1.4q-.06-.92-.06-1.83a7,7,0,0,1-3.57,3.08,12.59,12.59,0,0,1-4.73.95,11.72,11.72,0,0,1-4.85-.95,10.86,10.86,0,0,1-3.57-2.53,10.7,10.7,0,0,1-2.22-3.75,13.72,13.72,0,0,1-.77-4.61v-19h8.12v17.33a6.92,6.92,0,0,0,1.31,4.3,4.88,4.88,0,0,0,4.18,1.73,5.33,5.33,0,0,0,4.21-1.64,6.21,6.21,0,0,0,1.46-4.27V220.25H682v24.59c0,1.18,0,2.24.09,3.2s.14,1.7.22,2.22Z" transform="translate(-5 -47.7)"/>
    <path d="M688.83,242.09a8.58,8.58,0,0,1,.71-3.57,8.26,8.26,0,0,1,1.92-2.71,9.13,9.13,0,0,1,2.83-1.83,15.88,15.88,0,0,1,3.51-1l7.38-1.1a2.71,2.71,0,0,0,1.77-.76,2,2,0,0,0,.49-1.37,3.65,3.65,0,0,0-1.25-2.75,5.79,5.79,0,0,0-9.55,3.72l-7.19-1.52a9.85,9.85,0,0,1,1.09-3.54,11,11,0,0,1,2.5-3.17,12.53,12.53,0,0,1,3.91-2.29,15,15,0,0,1,5.37-.88,17.18,17.18,0,0,1,6,.94,11.35,11.35,0,0,1,4,2.5,9.31,9.31,0,0,1,2.26,3.63,13.41,13.41,0,0,1,.7,4.33v14.77c0,.81,0,1.67.12,2.59s.16,1.64.25,2.16h-7.45a15.85,15.85,0,0,1-.21-1.67c-.06-.71-.09-1.36-.09-1.92a10.06,10.06,0,0,1-8.85,4.45,11.76,11.76,0,0,1-4.3-.76,10.17,10.17,0,0,1-3.26-2,8.5,8.5,0,0,1-2.75-6.25Zm12,3a8.77,8.77,0,0,0,2.47-.34,5.15,5.15,0,0,0,2.11-1.16,5.72,5.72,0,0,0,1.46-2.13,8.56,8.56,0,0,0,.55-3.32v-1.35l-6.77,1A5.28,5.28,0,0,0,698,239,3.22,3.22,0,0,0,697,241.6a3.46,3.46,0,0,0,1,2.41A3.79,3.79,0,0,0,700.85,245.08Z" transform="translate(-5 -47.7)"/>
    <path d="M723.54,250.26V206.1h8.12v44.16Z" transform="translate(-5 -47.7)"/>
    <path d="M739.34,210.43a4.9,4.9,0,0,1,1.47-3.6,5,5,0,0,1,7.1,0,5,5,0,0,1,1.44,3.6,5,5,0,0,1-8.54,3.48A4.76,4.76,0,0,1,739.34,210.43Zm1,39.83v-30h8.11v30Z" transform="translate(-5 -47.7)"/>
    <g class="a">
      <path d="M755,250.26v-7.13l14.22-15.86H755.38v-7H779.6V227L765,243.19h14.88v7.07Z" transform="translate(-5 -47.7)"/>
    </g>
    <g class="a">
      <path d="M785,242.09a8.29,8.29,0,0,1,2.62-6.28,9.18,9.18,0,0,1,2.84-1.83,15.73,15.73,0,0,1,3.51-1l7.38-1.1a2.76,2.76,0,0,0,1.77-.76,2.08,2.08,0,0,0,.48-1.37,3.62,3.62,0,0,0-1.25-2.75,5.44,5.44,0,0,0-3.81-1.16,5.31,5.31,0,0,0-5.73,4.88l-7.2-1.52a9.87,9.87,0,0,1,1.1-3.54,10.78,10.78,0,0,1,2.5-3.17,12.6,12.6,0,0,1,3.9-2.29,15,15,0,0,1,5.37-.88,17.14,17.14,0,0,1,6,.94,11.39,11.39,0,0,1,4.06,2.5,9.4,9.4,0,0,1,2.25,3.63,13.41,13.41,0,0,1,.7,4.33v14.77c0,.81,0,1.67.13,2.59s.16,1.64.24,2.16h-7.44c-.08-.4-.15-1-.22-1.67s-.09-1.36-.09-1.92a10.51,10.51,0,0,1-3.32,3.11,10.4,10.4,0,0,1-5.52,1.34,11.72,11.72,0,0,1-4.3-.76,10.33,10.33,0,0,1-3.27-2,8.64,8.64,0,0,1-2-2.86A8.4,8.4,0,0,1,785,242.09Zm12,3a8.87,8.87,0,0,0,2.47-.34,5.17,5.17,0,0,0,2.1-1.16,5.86,5.86,0,0,0,1.47-2.13,8.76,8.76,0,0,0,.54-3.32v-1.35l-6.77,1a5.32,5.32,0,0,0-2.65,1.13,3.25,3.25,0,0,0-1.07,2.65,3.47,3.47,0,0,0,1,2.41A3.77,3.77,0,0,0,797,245.08Z" transform="translate(-5 -47.7)"/>
    </g>
    <g class="a">
      <path d="M829.57,220.28l6,0-.05,7.2-6,0L829.43,240a3.43,3.43,0,0,0,.87,2.72,3.92,3.92,0,0,0,2.65.78,14.34,14.34,0,0,0,1.46,0,3.79,3.79,0,0,0,1-.17L835.4,250a9.68,9.68,0,0,1-1.68.47,14.45,14.45,0,0,1-2.9.23,9.67,9.67,0,0,1-6.94-2.49,9,9,0,0,1-2.51-6.85l.1-14-5.43,0,.05-7.19h1.52a4.29,4.29,0,0,0,3.52-1.35,5.16,5.16,0,0,0,1.15-3.38l0-4.21,7.32.05Z" transform="translate(-5 -47.7)"/>
    </g>
    <path d="M841.45,210.43a4.9,4.9,0,0,1,1.47-3.6,5,5,0,0,1,7.1,0,5,5,0,0,1,1.44,3.6,5,5,0,0,1-8.54,3.48A4.76,4.76,0,0,1,841.45,210.43Zm1,39.83v-30h8.11v30Z" transform="translate(-5 -47.7)"/>
    <path d="M872.68,219.34a16.23,16.23,0,0,1,6.26,1.19,14.75,14.75,0,0,1,8.29,8.32,16.77,16.77,0,0,1,1.19,6.41,16.46,16.46,0,0,1-1.19,6.37,15.55,15.55,0,0,1-3.29,5,14.83,14.83,0,0,1-5,3.32,17,17,0,0,1-12.51,0,14.83,14.83,0,0,1-5-3.32,15.55,15.55,0,0,1-3.29-5,16.46,16.46,0,0,1-1.19-6.37,16.77,16.77,0,0,1,1.19-6.41,14.75,14.75,0,0,1,8.29-8.32A16.18,16.18,0,0,1,872.68,219.34Zm0,24.46a7.91,7.91,0,0,0,2.87-.55,6.86,6.86,0,0,0,2.44-1.62,8.13,8.13,0,0,0,1.68-2.65,11.13,11.13,0,0,0,0-7.44,8.29,8.29,0,0,0-1.68-2.66,6.71,6.71,0,0,0-2.44-1.61,7.74,7.74,0,0,0-5.73,0,6.71,6.71,0,0,0-2.44,1.61,8.29,8.29,0,0,0-1.68,2.66,11.13,11.13,0,0,0,0,7.44,8.13,8.13,0,0,0,1.68,2.65,6.86,6.86,0,0,0,2.44,1.62A7.9,7.9,0,0,0,872.68,243.8Z" transform="translate(-5 -47.7)"/>
    <path d="M902.94,250.26h-8.11v-30h7.87V224a8.44,8.44,0,0,1,3.81-3.41,12,12,0,0,1,9.7-.16,9.75,9.75,0,0,1,3.38,2.54,10.05,10.05,0,0,1,2,3.78,16.71,16.71,0,0,1,.64,4.63v18.91H914.1v-17.5a6.77,6.77,0,0,0-1.31-4.27,5.88,5.88,0,0,0-8.38.09,6.75,6.75,0,0,0-1.47,4.42Z" transform="translate(-5 -47.7)"/>
  </g>
  <g>
    <path d="M76.14,113.19a5.34,5.34,0,0,1-5.32-5.32V60a5.33,5.33,0,0,1,5.32-5.32H124A5.33,5.33,0,0,1,129.33,60v47.88a5.34,5.34,0,0,1-5.32,5.32Z" transform="translate(-5 -47.7)"/>
    <path d="M142,113.19a5.34,5.34,0,0,1-5.32-5.32V60A5.33,5.33,0,0,1,142,54.67h47.88A5.34,5.34,0,0,1,195.14,60v47.88a5.33,5.33,0,0,1-5.31,5.32Z" transform="translate(-5 -47.7)"/>
    <path d="M10.32,179A5.34,5.34,0,0,1,5,173.7V125.82a5.33,5.33,0,0,1,5.32-5.32H58.19a5.33,5.33,0,0,1,5.32,5.32V173.7A5.34,5.34,0,0,1,58.19,179Z" transform="translate(-5 -47.7)"/>
    <path d="M76.14,244.85a5.34,5.34,0,0,1-5.32-5.32V191.62a5.34,5.34,0,0,1,5.32-5.29H124a5.34,5.34,0,0,1,5.33,5.29V239.5a5.34,5.34,0,0,1-5.32,5.32Z" transform="translate(-5 -47.7)"/>
    <path d="M142,244.85a5.34,5.34,0,0,1-5.32-5.32V191.62A5.34,5.34,0,0,1,142,186.3h47.88a5.34,5.34,0,0,1,5.28,5.32V239.5a5.33,5.33,0,0,1-5.31,5.32Z" transform="translate(-5 -47.7)"/>
    <path class="b" d="M208.47,112.52a5.34,5.34,0,0,1-5.33-5.32V59.32A5.34,5.34,0,0,1,208.46,54h47.88a5.34,5.34,0,0,1,5.32,5.32V107.2a5.33,5.33,0,0,1-5.32,5.32Z" transform="translate(-5 -47.7)"/>
    <path class="b" d="M274.31,112.52A5.33,5.33,0,0,1,269,107.2V59.32A5.34,5.34,0,0,1,274.31,54h47.83a5.34,5.34,0,0,1,5.32,5.32V107.2a5.33,5.33,0,0,1-5.32,5.32Z" transform="translate(-5 -47.7)"/>
    <path class="b" d="M142.64,178.35a5.34,5.34,0,0,1-5.32-5.32V125.16a5.34,5.34,0,0,1,5.32-5.32h47.88a5.33,5.33,0,0,1,5.32,5.32V173a5.33,5.33,0,0,1-5.32,5.32Z" transform="translate(-5 -47.7)"/>
    <path class="b" d="M208.47,244.18a5.34,5.34,0,0,1-5.32-5.32V191a5.34,5.34,0,0,1,5.32-5.32h47.88a5.33,5.33,0,0,1,5.32,5.32v47.87a5.33,5.33,0,0,1-5.32,5.32Z" transform="translate(-5 -47.7)"/>
    <path class="b" d="M274.31,244.18a5.33,5.33,0,0,1-5.32-5.32V191a5.33,5.33,0,0,1,5.32-5.32h47.83a5.33,5.33,0,0,1,5.32,5.32v47.87a5.33,5.33,0,0,1-5.32,5.32Z" transform="translate(-5 -47.7)"/>
    <path d="M393.33,174.36a5.33,5.33,0,0,1-5.32,5.32H340.14a5.33,5.33,0,0,1-5.32-5.32V126.49a5.33,5.33,0,0,1,5.32-5.32H388a5.33,5.33,0,0,1,5.32,5.32Z" transform="translate(-5 -47.7)"/>
    <path d="M393.33,108.53a5.33,5.33,0,0,1-5.32,5.32H340.14a5.33,5.33,0,0,1-5.32-5.32V60.62a5.34,5.34,0,0,1,5.32-5.29H388a5.34,5.34,0,0,1,5.32,5.29Z" transform="translate(-5 -47.7)"/>
    <path d="M459.14,240.19a5.33,5.33,0,0,1-5.32,5.32H406a5.33,5.33,0,0,1-5.32-5.32V192.32A5.33,5.33,0,0,1,406,187h47.87a5.33,5.33,0,0,1,5.3,5.32Z" transform="translate(-5 -47.7)"/>
    <path d="M525,174.36a5.34,5.34,0,0,1-5.32,5.32H471.8a5.33,5.33,0,0,1-5.32-5.32V126.49a5.33,5.33,0,0,1,5.32-5.32h47.88a5.34,5.34,0,0,1,5.32,5.32Z" transform="translate(-5 -47.7)"/>
    <path d="M525,108.53a5.34,5.34,0,0,1-5.32,5.32H471.8a5.33,5.33,0,0,1-5.32-5.32V60.62a5.34,5.34,0,0,1,5.32-5.32h47.88A5.34,5.34,0,0,1,525,60.62Z" transform="translate(-5 -47.7)"/>
  </g>
</svg>
